<svg width="135" height="40" viewBox="0 0 135 40" fill="none" xmlns="http://www.w3.org/2000/svg">
  <rect width="135" height="40" rx="6" fill="black"/>
  <path d="M30.128 19.784C30.099 16.544 32.816 14.996 32.941 14.921C31.506 12.722 29.259 12.407 28.49 12.377C26.576 12.177 24.722 13.527 23.748 13.527C22.754 13.527 21.264 12.397 19.644 12.437C17.564 12.477 15.61 13.647 14.535 15.486C12.321 19.224 13.985 24.677 16.099 27.857C17.163 29.416 18.407 31.156 20.037 31.086C21.627 31.006 22.222 30.066 24.142 30.066C26.042 30.066 26.596 31.086 28.26 31.036C29.974 31.006 31.046 29.486 32.07 27.907C33.294 26.097 33.789 24.317 33.809 24.217C33.769 24.197 30.161 22.877 30.128 19.784Z" fill="white"/>
  <path d="M27.034 10.027C27.888 8.947 28.463 7.477 28.303 6.007C27.054 6.057 25.494 6.887 24.61 7.947C23.827 8.877 23.133 10.397 23.313 11.817C24.71 11.917 26.15 11.097 27.034 10.027Z" fill="white"/>
  <path d="M53.645 31.504H51.441L50.266 27.785H45.791L44.677 31.504H42.533L46.948 18.195H49.209L53.645 31.504ZM49.929 26.191L48.795 22.773C48.675 22.413 48.435 21.493 48.075 20.013H48.035C47.895 20.673 47.675 21.593 47.375 22.773L46.261 26.191H49.929Z" fill="white"/>
  <path d="M64.662 26.831C64.662 28.431 64.182 29.691 63.222 30.611C62.362 31.431 61.282 31.841 59.982 31.841C58.562 31.841 57.502 31.401 56.802 30.521H56.762V35.721H54.678V24.991C54.678 23.871 54.648 22.721 54.588 21.541H56.442L56.562 23.031H56.602C57.462 21.911 58.682 21.351 60.262 21.351C61.522 21.351 62.562 21.791 63.382 22.671C64.202 23.551 64.662 25.011 64.662 26.831ZM62.538 26.911C62.538 25.771 62.278 24.851 61.758 24.151C61.198 23.431 60.438 23.071 59.478 23.071C58.838 23.071 58.258 23.261 57.738 23.631C57.218 24.011 56.878 24.511 56.718 25.131C56.638 25.431 56.598 25.671 56.598 25.851V28.151C56.598 28.991 56.858 29.691 57.378 30.251C57.898 30.811 58.578 31.091 59.418 31.091C60.418 31.091 61.178 30.731 61.698 30.011C62.218 29.291 62.538 28.251 62.538 26.911Z" fill="white"/>
  <path d="M75.683 26.831C75.683 28.431 75.203 29.691 74.243 30.611C73.383 31.431 72.303 31.841 71.003 31.841C69.583 31.841 68.523 31.401 67.823 30.521H67.783V35.721H65.699V24.991C65.699 23.871 65.669 22.721 65.609 21.541H67.463L67.583 23.031H67.623C68.483 21.911 69.703 21.351 71.283 21.351C72.543 21.351 73.583 21.791 74.403 22.671C75.223 23.551 75.683 25.011 75.683 26.831ZM73.559 26.911C73.559 25.771 73.299 24.851 72.779 24.151C72.219 23.431 71.459 23.071 70.499 23.071C69.859 23.071 69.279 23.261 68.759 23.631C68.239 24.011 67.899 24.511 67.739 25.131C67.659 25.431 67.619 25.671 67.619 25.851V28.151C67.619 28.991 67.879 29.691 68.399 30.251C68.919 30.811 69.599 31.091 70.439 31.091C71.439 31.091 72.199 30.731 72.719 30.011C73.239 29.291 73.559 28.251 73.559 26.911Z" fill="white"/>
  <path d="M87.693 28.011C87.693 29.131 87.273 30.051 86.433 30.771C85.513 31.551 84.213 31.941 82.533 31.941C80.973 31.941 79.733 31.651 78.813 31.071L79.353 29.271C80.333 29.851 81.433 30.141 82.653 30.141C83.653 30.141 84.413 29.931 84.933 29.511C85.453 29.091 85.713 28.531 85.713 27.831C85.713 27.211 85.503 26.691 85.083 26.271C84.663 25.851 83.973 25.471 83.013 25.131C80.313 24.171 78.963 22.731 78.963 20.811C78.963 19.731 79.403 18.831 80.283 18.111C81.163 17.391 82.343 17.031 83.823 17.031C85.143 17.031 86.243 17.251 87.123 17.691L86.543 19.451C85.723 19.011 84.783 18.791 83.723 18.791C82.783 18.791 82.063 19.011 81.563 19.451C81.123 19.851 80.903 20.331 80.903 20.891C80.903 21.491 81.143 21.991 81.623 22.391C82.043 22.751 82.783 23.151 83.843 23.591C85.143 24.131 86.083 24.751 86.663 25.451C87.243 26.151 87.693 27.011 87.693 28.011Z" fill="white"/>
  <path d="M94.936 23.171H92.612V28.051C92.612 29.331 93.072 29.971 93.992 29.971C94.432 29.971 94.792 29.931 95.072 29.851L95.132 31.471C94.692 31.631 94.112 31.711 93.392 31.711C92.492 31.711 91.792 31.431 91.292 30.871C90.792 30.311 90.542 29.371 90.542 28.051V23.171H89.132V21.541H90.542V19.731L92.612 19.091V21.541H94.936V23.171Z" fill="white"/>
  <path d="M105.64 26.871C105.64 28.311 105.18 29.471 104.26 30.351C103.3 31.251 102.02 31.701 100.42 31.701C98.88 31.701 97.66 31.271 96.76 30.411C95.86 29.551 95.41 28.431 95.41 27.051C95.41 25.591 95.88 24.431 96.82 23.571C97.76 22.711 99.02 22.281 100.6 22.281C102.14 22.281 103.38 22.711 104.32 23.571C105.2 24.391 105.64 25.491 105.64 26.871ZM103.48 26.931C103.48 26.051 103.26 25.311 102.82 24.711C102.3 23.991 101.56 23.631 100.6 23.631C99.62 23.631 98.86 23.991 98.34 24.711C97.9 25.311 97.68 26.071 97.68 26.991C97.68 27.871 97.9 28.611 98.34 29.211C98.88 29.931 99.64 30.291 100.62 30.291C101.56 30.291 102.3 29.921 102.84 29.191C103.28 28.571 103.48 27.811 103.48 26.931Z" fill="white"/>
  <path d="M112.621 23.431C112.381 23.391 112.121 23.371 111.841 23.371C110.961 23.371 110.301 23.691 109.861 24.331C109.461 24.911 109.261 25.651 109.261 26.551V31.501H107.181L107.201 24.851C107.201 23.611 107.161 22.491 107.081 21.491H108.901L108.981 23.431H109.041C109.301 22.751 109.701 22.211 110.241 21.811C110.761 21.451 111.321 21.271 111.921 21.271C112.161 21.271 112.361 21.291 112.541 21.311L112.621 23.431Z" fill="white"/>
  <path d="M122.546 26.491C122.546 26.831 122.526 27.111 122.486 27.331H116.366C116.386 28.291 116.706 29.031 117.326 29.551C117.886 30.011 118.626 30.241 119.546 30.241C120.566 30.241 121.486 30.081 122.306 29.761L122.626 31.241C121.666 31.641 120.526 31.841 119.206 31.841C117.606 31.841 116.346 31.401 115.426 30.521C114.506 29.641 114.046 28.431 114.046 26.891C114.046 25.371 114.466 24.131 115.306 23.171C116.186 22.151 117.366 21.641 118.846 21.641C120.306 21.641 121.386 22.151 122.086 23.171C122.386 23.611 122.546 24.031 122.546 26.491ZM120.526 25.811C120.546 25.171 120.406 24.611 120.126 24.131C119.746 23.491 119.126 23.171 118.266 23.171C117.486 23.171 116.866 23.481 116.406 24.101C116.026 24.581 115.806 25.151 115.746 25.811H120.526Z" fill="white"/>
  <path d="M50.594 13.744C50.594 14.864 50.234 15.704 49.514 16.264C48.854 16.764 47.894 17.014 46.634 17.014C45.954 17.014 45.374 16.984 44.894 16.924V10.964C45.514 10.874 46.174 10.834 46.874 10.834C48.074 10.834 48.974 11.064 49.574 11.524C50.254 12.044 50.594 12.784 50.594 13.744ZM49.394 13.774C49.394 13.094 49.184 12.574 48.764 12.214C48.344 11.854 47.724 11.674 46.904 11.674C46.524 11.674 46.194 11.704 45.914 11.764V16.094C46.074 16.114 46.354 16.124 46.754 16.124C47.594 16.124 48.244 15.924 48.704 15.524C49.164 15.124 49.394 14.544 49.394 13.774Z" fill="white"/>
  <path d="M56.593 14.054C56.593 14.834 56.363 15.464 55.903 15.944C55.423 16.434 54.783 16.674 53.983 16.674C53.213 16.674 52.603 16.444 52.153 15.984C51.703 15.524 51.473 14.924 51.473 14.184C51.473 13.394 51.713 12.764 52.183 12.294C52.653 11.824 53.283 11.584 54.073 11.584C54.843 11.584 55.463 11.814 55.933 12.274C56.373 12.714 56.593 13.314 56.593 14.054ZM55.443 14.084C55.443 13.644 55.333 13.264 55.113 12.944C54.853 12.564 54.493 12.374 54.033 12.374C53.553 12.374 53.183 12.564 52.923 12.944C52.703 13.264 52.593 13.654 52.593 14.114C52.593 14.554 52.703 14.934 52.923 15.254C53.193 15.634 53.563 15.824 54.033 15.824C54.483 15.824 54.843 15.624 55.113 15.234C55.333 14.904 55.443 14.524 55.443 14.084Z" fill="white"/>
  <path d="M64.092 11.704L62.222 16.604H61.162L60.352 14.444C60.122 13.764 59.942 13.094 59.812 12.434H59.792C59.662 13.114 59.482 13.784 59.252 14.444L58.392 16.604H57.312L55.552 11.704H56.702L57.422 14.044C57.622 14.744 57.782 15.414 57.902 16.054H57.922C58.042 15.534 58.222 14.864 58.472 14.044L59.372 11.704H60.312L61.172 13.984C61.392 14.684 61.572 15.364 61.712 16.024H61.742C61.852 15.374 62.012 14.694 62.222 13.984L63.002 11.704H64.092Z" fill="white"/>
  <path d="M69.911 16.604H68.791V13.784C68.791 12.884 68.441 12.434 67.741 12.434C67.401 12.434 67.121 12.554 66.901 12.794C66.681 13.034 66.571 13.324 66.571 13.664V16.604H65.451V13.024C65.451 12.564 65.431 12.064 65.391 11.524H66.371L66.431 12.304H66.461C66.601 12.044 66.801 11.834 67.061 11.674C67.371 11.484 67.711 11.384 68.081 11.384C68.561 11.384 68.961 11.534 69.281 11.834C69.701 12.214 69.911 12.784 69.911 13.544V16.604Z" fill="white"/>
  <path d="M72.61 16.604H71.49V9.604H72.61V16.604Z" fill="white"/>
  <path d="M78.709 14.054C78.709 14.834 78.479 15.464 78.019 15.944C77.539 16.434 76.899 16.674 76.099 16.674C75.329 16.674 74.719 16.444 74.269 15.984C73.819 15.524 73.589 14.924 73.589 14.184C73.589 13.394 73.829 12.764 74.299 12.294C74.769 11.824 75.399 11.584 76.189 11.584C76.959 11.584 77.579 11.814 78.049 12.274C78.489 12.714 78.709 13.314 78.709 14.054ZM77.559 14.084C77.559 13.644 77.449 13.264 77.229 12.944C76.969 12.564 76.609 12.374 76.149 12.374C75.669 12.374 75.299 12.564 75.039 12.944C74.819 13.264 74.709 13.654 74.709 14.114C74.709 14.554 74.819 14.934 75.039 15.254C75.309 15.634 75.679 15.824 76.149 15.824C76.599 15.824 76.959 15.624 77.229 15.234C77.449 14.904 77.559 14.524 77.559 14.084Z" fill="white"/>
  <path d="M83.248 16.604H82.248L82.168 15.984H82.138C81.758 16.444 81.228 16.674 80.548 16.674C80.028 16.674 79.618 16.514 79.318 16.194C79.038 15.894 78.898 15.524 78.898 15.084C78.898 14.404 79.168 13.894 79.708 13.554C80.248 13.214 81.018 13.054 82.018 13.074V12.974C82.018 12.294 81.638 11.954 80.878 11.954C80.338 11.954 79.868 12.084 79.468 12.344L79.228 11.624C79.728 11.304 80.338 11.144 81.058 11.144C82.418 11.144 83.098 11.844 83.098 13.244V15.264C83.098 15.784 83.118 16.224 83.158 16.604H83.248ZM82.048 14.594V13.824C80.708 13.784 80.038 14.144 80.038 14.904C80.038 15.224 80.118 15.454 80.278 15.594C80.438 15.734 80.648 15.804 80.908 15.804C81.208 15.804 81.478 15.714 81.718 15.534C81.958 15.354 82.098 15.124 82.138 14.844C82.148 14.774 82.148 14.684 82.048 14.594Z" fill="white"/>
  <path d="M89.147 16.604H88.127L88.067 15.744H88.037C87.697 16.364 87.127 16.674 86.327 16.674C85.667 16.674 85.117 16.434 84.677 15.954C84.237 15.474 84.017 14.854 84.017 14.094C84.017 13.274 84.257 12.604 84.737 12.084C85.207 11.584 85.787 11.334 86.477 11.334C87.197 11.334 87.707 11.564 88.007 12.024H88.027V9.604H89.147V15.014C89.147 15.594 89.167 16.124 89.207 16.604H89.147ZM88.027 14.134V13.324C88.027 13.144 88.007 13.004 87.967 12.904C87.887 12.644 87.737 12.424 87.517 12.244C87.297 12.064 87.027 11.974 86.707 11.974C86.267 11.974 85.917 12.134 85.657 12.454C85.397 12.774 85.267 13.184 85.267 13.684C85.267 14.164 85.387 14.554 85.627 14.854C85.877 15.164 86.217 15.324 86.647 15.324C87.087 15.324 87.437 15.164 87.697 14.844C87.957 14.544 88.027 14.364 88.027 14.134Z" fill="white"/>
  <path d="M97.284 14.054C97.284 14.834 97.054 15.464 96.594 15.944C96.114 16.434 95.474 16.674 94.674 16.674C93.904 16.674 93.294 16.444 92.844 15.984C92.394 15.524 92.164 14.924 92.164 14.184C92.164 13.394 92.404 12.764 92.874 12.294C93.344 11.824 93.974 11.584 94.764 11.584C95.534 11.584 96.154 11.814 96.624 12.274C97.064 12.714 97.284 13.314 97.284 14.054ZM96.134 14.084C96.134 13.644 96.024 13.264 95.804 12.944C95.544 12.564 95.184 12.374 94.724 12.374C94.244 12.374 93.874 12.564 93.614 12.944C93.394 13.264 93.284 13.654 93.284 14.114C93.284 14.554 93.394 14.934 93.614 15.254C93.884 15.634 94.254 15.824 94.724 15.824C95.174 15.824 95.534 15.624 95.804 15.234C96.024 14.904 96.134 14.524 96.134 14.084Z" fill="white"/>
  <path d="M102.823 16.604H101.703V13.784C101.703 12.884 101.353 12.434 100.653 12.434C100.313 12.434 100.033 12.554 99.813 12.794C99.593 13.034 99.483 13.324 99.483 13.664V16.604H98.363V13.024C98.363 12.564 98.343 12.064 98.303 11.524H99.283L99.343 12.304H99.373C99.513 12.044 99.713 11.834 99.973 11.674C100.283 11.484 100.623 11.384 100.993 11.384C101.473 11.384 101.873 11.534 102.193 11.834C102.613 12.214 102.823 12.784 102.823 13.544V16.604Z" fill="white"/>
  <path d="M109.182 12.494H107.982V14.924C107.982 15.544 108.202 15.854 108.642 15.854C108.862 15.854 109.042 15.834 109.182 15.794L109.212 16.584C108.992 16.664 108.692 16.704 108.312 16.704C107.852 16.704 107.492 16.554 107.242 16.254C106.992 15.954 106.862 15.464 106.862 14.784V12.494H106.152V11.704H106.862V10.804L107.982 10.484V11.704H109.182V12.494Z" fill="white"/>
  <path d="M114.621 16.604H113.501V13.814C113.501 12.894 113.151 12.434 112.451 12.434C111.871 12.434 111.481 12.774 111.481 13.454V16.604H110.361V9.604H111.481V12.244H111.501C111.881 11.674 112.411 11.384 113.091 11.384C113.571 11.384 113.961 11.534 114.261 11.834C114.671 12.224 114.621 12.794 114.621 13.544V16.604Z" fill="white"/>
  <path d="M120.12 14.054C120.12 14.834 119.89 15.464 119.43 15.944C118.95 16.434 118.31 16.674 117.51 16.674C116.74 16.674 116.13 16.444 115.68 15.984C115.23 15.524 115 14.924 115 14.184C115 13.394 115.24 12.764 115.71 12.294C116.18 11.824 116.81 11.584 117.6 11.584C118.37 11.584 118.99 11.814 119.46 12.274C119.9 12.714 120.12 13.314 120.12 14.054ZM118.97 14.084C118.97 13.644 118.86 13.264 118.64 12.944C118.38 12.564 118.02 12.374 117.56 12.374C117.08 12.374 116.71 12.564 116.45 12.944C116.23 13.264 116.12 13.654 116.12 14.114C116.12 14.554 116.23 14.934 116.45 15.254C116.72 15.634 117.09 15.824 117.56 15.824C118.01 15.824 118.37 15.624 118.64 15.234C118.86 14.904 118.97 14.524 118.97 14.084Z" fill="white"/>
  <path d="M125.659 16.604H124.659L124.579 15.984H124.549C124.169 16.444 123.639 16.674 122.959 16.674C122.439 16.674 122.029 16.514 121.729 16.194C121.449 15.894 121.309 15.524 121.309 15.084C121.309 14.404 121.579 13.894 122.119 13.554C122.659 13.214 123.429 13.054 124.429 13.074V12.974C124.429 12.294 124.049 11.954 123.289 11.954C122.749 11.954 122.279 12.084 121.879 12.344L121.639 11.624C122.139 11.304 122.749 11.144 123.469 11.144C124.829 11.144 125.509 11.844 125.509 13.244V15.264C125.509 15.784 125.529 16.224 125.569 16.604H125.659ZM124.459 14.594V13.824C123.119 13.784 122.449 14.144 122.449 14.904C122.449 15.224 122.529 15.454 122.689 15.594C122.849 15.734 123.059 15.804 123.319 15.804C123.619 15.804 123.889 15.714 124.129 15.534C124.369 15.354 124.509 15.124 124.549 14.844C124.559 14.774 124.559 14.684 124.459 14.594Z" fill="white"/>
</svg>