<svg width="1147" height="440" viewBox="0 0 1147 440" fill="none" xmlns="http://www.w3.org/2000/svg">
<path d="M120 224.691L183.539 320H286.318V221.818L353.308 320H453.333V219.091L387.261 120H286.318V218.182L220.246 120H120.22" fill="#CC5500"/>
<path d="M990.352 306.966C978.048 306.966 968.273 304.017 961.025 298.118C953.778 292.05 950.154 281.348 950.154 266.01V204.323H918.552V181.57H937.261C945.856 181.57 950.913 177.356 952.429 168.929L956.222 148.704H976.953V181.57H1026.5V204.323H976.953V265.505C976.953 272.078 978.385 276.713 981.25 279.409C984.284 281.938 989.425 283.202 996.672 283.202H1026V306.966H990.352Z" fill="#111111"/>
<path d="M794.9 306.965V181.569H818.159L820.434 200.277H821.698C825.069 194.209 830.294 189.069 837.373 184.855C844.452 180.642 852.626 178.535 861.896 178.535C877.233 178.535 888.779 183.17 896.532 192.44C904.285 201.71 908.161 215.362 908.161 233.396V306.965H881.363V236.682C881.363 226.233 879.172 218.143 874.79 212.412C870.407 206.682 863.497 203.816 854.059 203.816C844.789 203.816 837.036 206.934 830.8 213.171C824.732 219.407 821.698 228.424 821.698 240.222V306.965H794.9Z" fill="#111111"/>
<path d="M698.424 310C683.255 310 671.71 305.365 663.789 296.095C656.036 286.657 652.159 273.005 652.159 255.139V181.57H678.958V251.853C678.958 262.134 681.149 270.224 685.531 276.123C690.081 281.853 696.992 284.719 706.262 284.719C715.532 284.719 723.285 281.601 729.521 275.365C735.757 269.128 738.875 260.111 738.875 248.313V181.57H765.673V306.966H742.414L740.139 288.258H738.875C735.504 294.326 730.279 299.466 723.2 303.68C716.121 307.893 707.863 310 698.424 310Z" fill="#111111"/>
<path d="M502.587 306.971V130H529.386V203.316H606.747V130H633.546V306.971H606.747V227.839H529.386V306.971H502.587Z" fill="#111111"/>
</svg>
