<svg width="1927" height="440" viewBox="0 0 1927 440" fill="none" xmlns="http://www.w3.org/2000/svg">
<path d="M120.722 224.691L184.261 320H287.04V221.818L354.029 320H454.055V219.091L387.983 120H287.04V218.182L220.968 120H120.942" fill="#CC5500"/>
<path d="M991.073 306.966C978.77 306.966 968.994 304.017 961.747 298.118C954.5 292.05 950.876 281.348 950.876 266.01V204.323H919.274V181.57H937.982C946.578 181.57 951.634 177.356 953.151 168.929L956.943 148.704H977.674V181.57H1027.23V204.323H977.674V265.505C977.674 272.078 979.107 276.713 981.972 279.409C985.006 281.938 990.147 283.202 997.394 283.202H1026.72V306.966H991.073Z" fill="#111111"/>
<path d="M795.622 306.965V181.569H818.881L821.156 200.277H822.42C825.791 194.209 831.016 189.069 838.095 184.855C845.173 180.642 853.348 178.535 862.618 178.535C877.955 178.535 889.5 183.17 897.253 192.44C905.006 201.71 908.883 215.362 908.883 233.396V306.965H882.084V236.682C882.084 226.233 879.893 218.143 875.511 212.412C871.129 206.682 864.219 203.816 854.78 203.816C845.51 203.816 837.757 206.934 831.521 213.171C825.454 219.407 822.42 228.424 822.42 240.222V306.965H795.622Z" fill="#111111"/>
<path d="M699.146 310C683.977 310 672.432 305.365 664.51 296.095C656.757 286.657 652.881 273.005 652.881 255.139V181.57H679.679V251.853C679.679 262.134 681.87 270.224 686.252 276.123C690.803 281.853 697.713 284.719 706.983 284.719C716.253 284.719 724.006 281.601 730.242 275.365C736.478 269.128 739.597 260.111 739.597 248.313V181.57H766.395V306.966H743.136L740.861 288.258H739.597C736.226 294.326 731.001 299.466 723.922 303.68C716.843 307.893 708.584 310 699.146 310Z" fill="#111111"/>
<path d="M503.309 306.971V130H530.107V203.316H607.469V130H634.267V306.971H607.469V227.839H530.107V306.971H503.309Z" fill="#111111"/>
<path d="M1751.83 308.133C1740.22 308.133 1730.17 305.436 1721.67 300.043C1713.34 294.649 1706.88 287.05 1702.3 277.243C1697.73 267.437 1695.44 255.915 1695.44 242.677C1695.44 229.275 1697.81 217.834 1702.55 208.355C1707.45 198.876 1714.15 191.603 1722.65 186.536C1731.31 181.306 1741.2 178.691 1752.32 178.691C1764.25 178.691 1774.22 181.388 1782.22 186.781C1790.23 192.011 1796.28 198.957 1800.37 207.62C1804.45 216.282 1806.49 225.761 1806.49 236.057C1806.49 237.692 1806.49 239.245 1806.49 240.715C1806.49 242.186 1806.41 243.902 1806.25 245.864H1703.28V236.303H1795.71C1795.54 220.449 1791.38 208.519 1783.21 200.51C1775.03 192.502 1764.57 188.498 1751.83 188.498C1743.98 188.498 1736.63 190.295 1729.76 193.891C1722.9 197.487 1717.26 203.043 1712.85 210.561C1708.6 218.08 1706.47 227.641 1706.47 239.245V243.657C1706.47 256.078 1708.6 266.375 1712.85 274.547C1717.1 282.555 1722.65 288.521 1729.52 292.443C1736.38 296.365 1743.82 298.327 1751.83 298.327C1762.12 298.327 1770.62 295.957 1777.32 291.217C1784.02 286.314 1788.93 279.45 1792.03 270.624H1803.06C1800.94 277.815 1797.59 284.271 1793.01 289.991C1788.6 295.712 1782.96 300.206 1776.1 303.475C1769.23 306.58 1761.14 308.133 1751.83 308.133Z" fill="#111111"/>
<path d="M1631.97 308.133C1620.86 308.133 1610.89 305.518 1602.06 300.288C1593.24 294.895 1586.29 287.376 1581.22 277.734C1576.32 267.928 1573.87 256.569 1573.87 243.657C1573.87 230.419 1576.4 218.978 1581.47 209.336C1586.7 199.53 1593.73 192.011 1602.55 186.781C1611.38 181.388 1621.18 178.691 1631.97 178.691C1645.86 178.691 1657.38 182.287 1666.54 189.478C1675.85 196.669 1681.74 205.904 1684.19 217.181H1672.67C1670.7 208.355 1666.05 201.409 1658.69 196.343C1651.5 191.276 1642.59 188.743 1631.97 188.743C1624.12 188.743 1616.61 190.786 1609.42 194.872C1602.22 198.794 1596.42 204.841 1592.01 213.013C1587.6 221.021 1585.39 231.236 1585.39 243.657C1585.39 253.137 1586.7 261.308 1589.31 268.173C1591.93 275.037 1595.44 280.757 1599.85 285.333C1604.43 289.746 1609.5 293.015 1615.05 295.14C1620.61 297.264 1626.25 298.327 1631.97 298.327C1638.83 298.327 1645.04 297.264 1650.6 295.14C1656.32 292.852 1661.14 289.583 1665.07 285.333C1668.99 280.921 1671.52 275.691 1672.67 269.644H1684.19C1681.9 280.757 1676.18 289.991 1667.03 297.346C1658.04 304.537 1646.35 308.133 1631.97 308.133Z" fill="#111111"/>
<path d="M1459.85 305.191V181.633H1469.66L1470.64 206.639C1474.89 197.323 1480.77 190.377 1488.29 185.801C1495.97 181.061 1504.47 178.691 1513.78 178.691C1522.77 178.691 1530.7 180.489 1537.56 184.085C1544.43 187.68 1549.82 193.237 1553.74 200.755C1557.67 208.11 1559.63 217.671 1559.63 229.438V305.191H1548.6V231.154C1548.6 216.609 1545.49 205.904 1539.28 199.039C1533.07 192.175 1524.08 188.743 1512.31 188.743C1504.47 188.743 1497.36 190.704 1490.99 194.626C1484.77 198.385 1479.87 203.942 1476.28 211.297C1472.68 218.652 1470.88 227.722 1470.88 238.509V305.191H1459.85Z" fill="#111111"/>
<path d="M1385.36 308.133C1376.04 308.133 1368.2 306.335 1361.82 302.739C1355.45 299.144 1350.63 294.486 1347.36 288.766C1344.09 282.882 1342.46 276.59 1342.46 269.889C1342.46 260.9 1344.5 253.545 1348.58 247.825C1352.67 242.105 1358.39 237.855 1365.75 235.077C1373.26 232.135 1381.93 230.664 1391.73 230.664H1429C1429 221.839 1427.69 214.32 1425.07 208.11C1422.62 201.899 1418.78 197.078 1413.55 193.646C1408.32 190.214 1401.46 188.498 1392.96 188.498C1382.99 188.498 1374.73 190.867 1368.2 195.607C1361.82 200.347 1357.74 207.538 1355.94 217.181H1344.66C1345.81 208.519 1348.67 201.409 1353.24 195.852C1357.98 190.132 1363.78 185.883 1370.65 183.104C1377.51 180.162 1384.95 178.691 1392.96 178.691C1404.23 178.691 1413.31 180.98 1420.17 185.556C1427.03 189.968 1432.02 196.016 1435.12 203.697C1438.39 211.215 1440.03 219.796 1440.03 229.438V305.191H1430.22L1429 280.43C1427.69 283.045 1425.89 285.987 1423.6 289.256C1421.31 292.525 1418.45 295.548 1415.02 298.327C1411.59 301.105 1407.42 303.393 1402.52 305.191C1397.78 307.152 1392.06 308.133 1385.36 308.133ZM1386.58 298.082C1393.61 298.082 1399.74 296.774 1404.97 294.159C1410.2 291.381 1414.61 287.785 1418.21 283.372C1421.8 278.796 1424.5 273.893 1426.3 268.663C1428.1 263.433 1429 258.285 1429 253.218V240.225H1392.47C1382.82 240.225 1375.23 241.533 1369.67 244.148C1364.11 246.599 1360.11 250.031 1357.66 254.444C1355.37 258.857 1354.22 263.923 1354.22 269.644C1354.22 274.874 1355.45 279.695 1357.9 284.108C1360.35 288.357 1364.03 291.789 1368.93 294.404C1373.84 296.856 1379.72 298.082 1386.58 298.082Z" fill="#111111"/>
<path d="M1228.44 305.191V181.633H1238.24L1239.23 206.639C1243.47 197.323 1249.36 190.377 1256.88 185.801C1264.56 181.061 1273.06 178.691 1282.37 178.691C1291.36 178.691 1299.29 180.489 1306.15 184.085C1313.02 187.68 1318.41 193.237 1322.33 200.755C1326.25 208.11 1328.22 217.671 1328.22 229.438V305.191H1317.18V231.154C1317.18 216.609 1314.08 205.904 1307.87 199.039C1301.66 192.175 1292.67 188.743 1280.9 188.743C1273.06 188.743 1265.95 190.704 1259.57 194.626C1253.36 198.385 1248.46 203.942 1244.86 211.297C1241.27 218.652 1239.47 227.722 1239.47 238.509V305.191H1228.44Z" fill="#111111"/>
<path d="M1193.33 305.191V181.633H1204.36V305.191H1193.33ZM1198.97 149.028C1196.68 149.028 1194.64 148.211 1192.84 146.576C1191.2 144.778 1190.39 142.654 1190.39 140.202C1190.39 137.751 1191.2 135.789 1192.84 134.318C1194.64 132.684 1196.68 131.867 1198.97 131.867C1201.25 131.867 1203.22 132.684 1204.85 134.318C1206.65 135.789 1207.55 137.751 1207.55 140.202C1207.55 142.654 1206.65 144.778 1204.85 146.576C1203.22 148.211 1201.25 149.028 1198.97 149.028Z" fill="#111111"/>
<path d="M1078.94 305.191V133.583H1177.98V142.899H1089.97V214.239H1167.68V223.555H1089.97V305.191H1078.94Z" fill="#111111"/>
</svg>
