<svg width="135" height="40" viewBox="0 0 135 40" fill="none" xmlns="http://www.w3.org/2000/svg">
  <rect width="135" height="40" rx="5" fill="black"/>
  <path d="M47.42 10.24C47.42 11.3 47.17 12.16 46.67 12.79C46.08 13.56 45.23 13.94 44.14 13.94C43.09 13.94 42.22 13.56 41.61 12.8C41 12.04 40.7 11.11 40.7 10.01C40.7 8.91 41 7.98 41.61 7.22C42.22 6.46 43.09 6.08 44.15 6.08C44.68 6.08 45.17 6.19 45.62 6.42C46.07 6.65 46.42 6.96 46.67 7.37L45.96 7.8C45.56 7.17 44.96 6.85 44.15 6.85C43.37 6.85 42.73 7.16 42.24 7.77C41.75 8.38 41.5 9.15 41.5 10.08C41.5 11.01 41.75 11.78 42.24 12.39C42.73 13 43.37 13.31 44.15 13.31C44.99 13.31 45.65 13.02 46.11 12.45C46.41 12.06 46.57 11.54 46.59 10.89H44.15V10.16H47.36C47.4 10.35 47.42 10.53 47.42 10.24Z" fill="white" stroke="white" stroke-width="0.2"/>
  <path d="M52.03 7.74H49.3V9.76H51.75V10.48H49.3V12.5H52.03V13.23H48.52V7.01H52.03V7.74Z" fill="white" stroke="white" stroke-width="0.2"/>
  <path d="M55.28 13.23H54.5V7.74H52.88V7.01H56.9V7.74H55.28V13.23Z" fill="white" stroke="white" stroke-width="0.2"/>
  <path d="M59.94 13.23V7.01H60.72V13.23H59.94Z" fill="white" stroke="white" stroke-width="0.2"/>
  <path d="M64.13 13.23H63.35V7.74H61.73V7.01H65.75V7.74H64.13V13.23Z" fill="white" stroke="white" stroke-width="0.2"/>
  <path d="M73.61 12.45C73.05 13.11 72.29 13.44 71.34 13.44C70.38 13.44 69.63 13.11 69.07 12.45C68.51 11.79 68.23 10.97 68.23 10C68.23 9.03 68.51 8.21 69.07 7.55C69.63 6.89 70.38 6.56 71.34 6.56C72.29 6.56 73.05 6.89 73.61 7.56C74.17 8.23 74.45 9.04 74.45 10C74.45 10.96 74.17 11.79 73.61 12.45ZM69.62 11.93C70.03 12.44 70.61 12.7 71.34 12.7C72.07 12.7 72.65 12.44 73.06 11.93C73.47 11.42 73.68 10.77 73.68 10C73.68 9.23 73.47 8.58 73.06 8.07C72.65 7.56 72.07 7.3 71.34 7.3C70.61 7.3 70.03 7.56 69.62 8.07C69.21 8.58 69 9.23 69 10C69 10.77 69.21 11.42 69.62 11.93Z" fill="white" stroke="white" stroke-width="0.2"/>
  <path d="M75.58 13.23V7.01H76.52L79.43 11.9H79.47L79.43 10.73V7.01H80.21V13.23H79.38L76.36 8.13H76.32L76.36 9.3V13.23H75.58Z" fill="white" stroke="white" stroke-width="0.2"/>
  <path d="M68.14 21.75C65.79 21.75 63.86 23.55 63.86 26.06C63.86 28.56 65.79 30.36 68.14 30.36C70.49 30.36 72.41 28.56 72.41 26.06C72.41 23.55 70.49 21.75 68.14 21.75ZM68.14 28.58C66.83 28.58 65.73 27.5 65.73 26.06C65.73 24.61 66.83 23.53 68.14 23.53C69.45 23.53 70.55 24.61 70.55 26.06C70.55 27.5 69.45 28.58 68.14 28.58ZM58.68 21.75C56.33 21.75 54.41 23.55 54.41 26.06C54.41 28.56 56.33 30.36 58.68 30.36C61.03 30.36 62.95 28.56 62.95 26.06C62.95 23.55 61.03 21.75 58.68 21.75ZM58.68 28.58C57.37 28.58 56.27 27.5 56.27 26.06C56.27 24.61 57.37 23.53 58.68 23.53C59.99 23.53 61.09 24.61 61.09 26.06C61.09 27.5 59.99 28.58 58.68 28.58ZM47.32 23.06V24.96H51.73C51.6 26.01 51.23 26.82 50.65 27.4C49.96 28.09 48.93 28.83 47.32 28.83C44.98 28.83 43.11 26.91 43.11 24.56C43.11 22.21 44.98 20.29 47.32 20.29C48.69 20.29 49.7 20.87 50.44 21.56L51.78 20.22C50.72 19.2 49.32 18.42 47.32 18.42C43.97 18.42 41.15 21.15 41.15 24.56C41.15 27.97 43.97 30.7 47.32 30.7C49.28 30.7 50.72 30.06 51.85 28.88C53.01 27.72 53.38 26.05 53.38 24.71C53.38 24.29 53.34 23.9 53.26 23.56L47.32 23.56V23.06ZM92.87 24.29C92.51 23.33 91.48 21.75 89.23 21.75C86.99 21.75 85.14 23.48 85.14 26.06C85.14 28.48 86.97 30.36 89.43 30.36C91.4 30.36 92.51 29.13 92.97 28.38L91.48 27.4C90.99 28.18 90.32 28.71 89.43 28.71C88.54 28.71 87.89 28.31 87.47 27.52L93.05 25.19L92.87 24.29ZM87.14 26.06C87.1 24.46 88.4 23.49 89.31 23.49C90.01 23.49 90.6 23.83 90.8 24.33L87.14 26.06ZM82.52 30.5H84.38V18.91H82.52V30.5ZM79.56 22.9H79.5C79.1 22.42 78.32 21.75 77.19 21.75C74.99 21.75 73 23.67 73 26.08C73 28.48 74.99 30.36 77.19 30.36C78.32 30.36 79.1 29.69 79.5 29.2H79.56V29.84C79.56 31.64 78.67 32.53 77.23 32.53C76.05 32.53 75.3 31.64 75.01 30.91L73.4 31.62C73.86 32.82 75.09 34.2 77.23 34.2C79.5 34.2 81.32 32.91 81.32 29.53V22.11H79.56V22.9ZM77.36 28.58C76.05 28.58 74.99 27.48 74.99 26.08C74.99 24.67 76.05 23.53 77.36 23.53C78.65 23.53 79.63 24.67 79.63 26.08C79.63 27.48 78.65 28.58 77.36 28.58ZM101.85 18.91H97.16V30.5H99.02V26.06H101.85C104.05 26.06 106.2 24.48 106.2 22.48C106.2 20.48 104.04 18.91 101.85 18.91ZM101.89 24.33H99.02V20.64H101.89C103.3 20.64 104.34 21.75 104.34 22.48C104.34 23.2 103.3 24.33 101.89 24.33ZM113.69 21.73C112.38 21.73 111.01 22.33 110.52 23.67L112.13 24.37C112.42 23.67 113.05 23.51 113.73 23.51C114.7 23.51 115.68 24.1 115.7 25.15V25.31C115.41 25.15 114.7 24.9 113.75 24.9C111.99 24.9 110.2 25.86 110.2 27.67C110.2 29.31 111.63 30.38 113.22 30.38C114.43 30.38 115.12 29.82 115.54 29.2H115.6V30.5H117.4V25.31C117.4 23.13 115.78 21.73 113.69 21.73ZM113.47 28.6C112.84 28.6 112.06 28.27 112.06 27.69C112.06 26.93 113.03 26.64 113.87 26.64C114.62 26.64 114.99 26.79 115.41 26.99C115.27 27.98 114.39 28.6 113.47 28.6ZM124.96 22.11L122.86 27.69H122.8L120.62 22.11H118.62L121.93 30.13L120.05 34.07H121.99L127.02 22.11H124.96ZM107.81 30.5H109.67V18.91H107.81V30.5Z" fill="white"/>
  <path d="M10.44 7.54C10.15 7.85 9.98 8.34 9.98 8.94V31.11C9.98 31.72 10.15 32.21 10.44 32.51L10.51 32.58L23.18 19.91V19.84V19.77L10.51 7.1L10.44 7.54Z" fill="url(#paint0_linear_1_1)"/>
  <path d="M27.17 23.9L23.18 19.91V19.84V19.77L27.17 15.78L27.25 15.83L31.96 18.53C33.18 19.21 33.18 20.4 31.96 21.08L27.25 23.78L27.17 23.9Z" fill="url(#paint1_linear_1_1)"/>
  <path d="M27.25 23.78L23.18 19.77L10.44 32.51C10.83 32.93 11.47 32.98 12.19 32.56L27.25 23.78Z" fill="url(#paint2_linear_1_1)"/>
  <path d="M27.25 15.76L12.19 6.98C11.47 6.56 10.83 6.61 10.44 7.03L23.18 19.77L27.25 15.76Z" fill="url(#paint3_linear_1_1)"/>
  <defs>
    <linearGradient id="paint0_linear_1_1" x1="21.8" y1="9.18" x2="5.02" y2="26.46" gradientUnits="userSpaceOnUse">
      <stop stop-color="#00A0FF"/>
      <stop offset="0.01" stop-color="#00A1FF"/>
      <stop offset="0.26" stop-color="#00BEFF"/>
      <stop offset="0.51" stop-color="#00D2FF"/>
      <stop offset="0.76" stop-color="#00DFFF"/>
      <stop offset="1" stop-color="#00E3FF"/>
    </linearGradient>
    <linearGradient id="paint1_linear_1_1" x1="33.83" y1="19.84" x2="9.64" y2="19.84" gradientUnits="userSpaceOnUse">
      <stop stop-color="#FFE000"/>
      <stop offset="0.41" stop-color="#FFBD00"/>
      <stop offset="0.78" stop-color="#FFA500"/>
      <stop offset="1" stop-color="#FF9C00"/>
    </linearGradient>
    <linearGradient id="paint2_linear_1_1" x1="24.83" y1="22.26" x2="2.07" y2="45.15" gradientUnits="userSpaceOnUse">
      <stop stop-color="#FF3A44"/>
      <stop offset="1" stop-color="#C31162"/>
    </linearGradient>
    <linearGradient id="paint3_linear_1_1" x1="7.3" y1="0.18" x2="17.46" y2="10.34" gradientUnits="userSpaceOnUse">
      <stop stop-color="#32A071"/>
      <stop offset="0.07" stop-color="#2DA771"/>
      <stop offset="0.48" stop-color="#15CF74"/>
      <stop offset="0.8" stop-color="#06E775"/>
      <stop offset="1" stop-color="#00F076"/>
    </linearGradient>
  </defs>
</svg>